<?xml version="1.0" encoding="UTF-8" standalone="no"?>
<!DOCTYPE svg PUBLIC "-//W3C//DTD SVG 1.1//EN" "http://www.w3.org/Graphics/SVG/1.1/DTD/svg11.dtd">
<svg version="1.1" xmlns="http://www.w3.org/2000/svg" xmlns:xlink="http://www.w3.org/1999/xlink" preserveAspectRatio="xMidYMid meet" viewBox="0 0 640 640" width="48" height="48"><defs><path d="M0 320C0 496.56 143.44 640 320 640C496.56 640 640 496.56 640 320C640 143.44 496.56 0 320 0C143.44 0 0 143.44 0 320ZM610.91 320C610.91 480.84 480.84 610.91 320 610.91C159.16 610.91 29.09 480.84 29.09 320C29.09 159.16 159.16 29.09 320 29.09C480.84 29.09 610.91 159.16 610.91 320ZM305.45 167.27C305.45 176.48 305.45 222.55 305.45 305.45C222.55 305.45 176.48 305.45 167.27 305.45C166.82 305.43 166.36 305.43 165.91 305.45C157.88 305.83 151.67 312.65 152.04 320.68C152.42 328.71 159.23 334.92 167.27 334.55C167.27 334.55 167.27 334.55 167.27 334.55C176.48 334.55 222.55 334.55 305.45 334.55C305.45 417.45 305.45 463.52 305.45 472.73C305.34 480.76 311.76 487.36 319.79 487.48C327.83 487.59 334.43 481.17 334.55 473.14C334.55 473 334.55 472.86 334.55 472.73C334.55 463.52 334.55 417.45 334.55 334.55C417.45 334.55 463.52 334.55 472.73 334.55C480.76 334.66 487.36 328.24 487.48 320.21C487.59 312.17 481.17 305.57 473.14 305.45C473 305.45 472.86 305.45 472.73 305.45C463.52 305.45 417.45 305.45 334.55 305.45C334.55 222.55 334.55 176.48 334.55 167.27C334.72 159.24 328.35 152.59 320.32 152.42C319.68 152.4 319.04 152.43 318.41 152.5C310.92 153.32 305.29 159.74 305.45 167.27Z" id="b1Dtm86Tb"></path></defs><g><g><g><use xlink:href="#b1Dtm86Tb" opacity="1" fill="#ffffff" fill-opacity="1"></use><g><use xlink:href="#b1Dtm86Tb" opacity="1" fill-opacity="0" stroke="#000000" stroke-width="7.14" stroke-opacity="0"></use></g></g></g></g></svg>