<?xml version="1.0" encoding="UTF-8" standalone="no"?>
<!DOCTYPE svg PUBLIC "-//W3C//DTD SVG 1.1//EN" "http://www.w3.org/Graphics/SVG/1.1/DTD/svg11.dtd">
<svg version="1.1" xmlns="http://www.w3.org/2000/svg" xmlns:xlink="http://www.w3.org/1999/xlink" preserveAspectRatio="xMidYMid meet" viewBox="0 0 640 640" width="48" height="48"><defs><path d="M317.79 0C145.16 0 3.52 143.22 3.52 317.76C3.52 483.36 131.88 640 317.79 640C481.56 640 636.48 505.73 636.48 317.76C636.48 152.17 503.69 0 317.79 0ZM317.79 604.2C158.44 604.2 38.93 456.5 38.93 317.76C38.93 165.59 167.29 35.8 317.79 35.8C481.56 35.8 601.07 179.02 601.07 317.76C601.07 483.36 455 604.2 317.79 604.2ZM298.06 126.17C298.06 217.16 298.06 267.7 298.06 277.81C282.84 285.74 272.46 301.66 272.46 320C272.46 346.26 293.74 367.54 320 367.54C338.34 367.54 354.26 357.16 362.19 341.94C372.54 341.94 424.31 341.94 517.49 341.94C517.49 341.72 517.49 341.6 517.49 341.58C518.67 341.82 519.89 341.94 521.14 341.94C531.24 341.94 539.43 333.76 539.43 323.66C539.43 313.56 531.24 305.37 521.14 305.37C519.89 305.37 518.67 305.5 517.49 305.74C517.49 305.71 517.49 305.59 517.49 305.37C426.14 305.37 375.4 305.37 365.25 305.37C360.57 290.88 349.12 279.43 334.63 274.75C334.63 264.84 334.63 215.32 334.63 126.17L334.63 122.51C334.41 122.51 334.29 122.51 334.26 122.51C332.57 114.17 325.19 107.89 316.34 107.89C307.5 107.89 300.12 114.17 298.42 122.51C298.4 122.51 298.28 122.51 298.06 122.51L298.06 126.17Z" id="aq8SCgMUB"></path></defs><g><g><g><use xlink:href="#aq8SCgMUB" opacity="1" fill="#007acc" fill-opacity="1"></use><g><use xlink:href="#aq8SCgMUB" opacity="1" fill-opacity="0" stroke="#000000" stroke-width="1" stroke-opacity="0"></use></g></g></g></g></svg>