<?xml version="1.0" encoding="UTF-8" standalone="no"?>
<!DOCTYPE svg PUBLIC "-//W3C//DTD SVG 1.1//EN" "http://www.w3.org/Graphics/SVG/1.1/DTD/svg11.dtd">
<svg version="1.1" xmlns="http://www.w3.org/2000/svg" xmlns:xlink="http://www.w3.org/1999/xlink" preserveAspectRatio="xMidYMid meet" viewBox="0 0 640 640" width="48" height="48"><defs><path d="M0 320C0 496.56 143.44 640 320 640C496.56 640 640 496.56 640 320C640 143.44 496.56 0 320 0C143.44 0 0 143.44 0 320ZM610.91 320C610.91 480.84 480.84 610.91 320 610.91C159.16 610.91 29.09 480.84 29.09 320C29.09 159.16 159.16 29.09 320 29.09C480.84 29.09 610.91 159.16 610.91 320ZM464.09 200.68C451.58 213.55 389 277.86 276.36 393.64C227 342.91 199.58 314.73 194.09 309.09C188.57 303.25 179.37 302.99 173.53 308.51C167.69 314.03 167.43 323.23 172.94 329.07C173.02 329.16 173.1 329.24 173.18 329.32C182.45 338.84 256.64 415.02 265.91 424.55C271.5 430.32 280.7 430.47 286.48 424.88C286.59 424.77 286.71 424.66 286.82 424.55C306.64 404.18 465.18 241.27 485 220.91C490.65 215.2 490.61 205.99 484.9 200.34C482.04 197.5 478.12 195.98 474.09 196.14C470.29 196.29 466.7 197.92 464.09 200.68Z" id="afiqg31Ce"></path></defs><g><g><g><use xlink:href="#afiqg31Ce" opacity="1" fill="#548C2F" fill-opacity="1"></use><g><use xlink:href="#afiqg31Ce" opacity="1" fill-opacity="0" stroke="#000000" stroke-width="7.09" stroke-opacity="0"></use></g></g></g></g></svg>