<?xml version="1.0" encoding="UTF-8" standalone="no"?>
<!DOCTYPE svg PUBLIC "-//W3C//DTD SVG 1.1//EN" "http://www.w3.org/Graphics/SVG/1.1/DTD/svg11.dtd">
<svg version="1.1" xmlns="http://www.w3.org/2000/svg" xmlns:xlink="http://www.w3.org/1999/xlink" preserveAspectRatio="xMidYMid meet" viewBox="0 0 640 640" width="48" height="48"><defs><path d="M233.34 20.03C233.34 22.69 233.34 36.03 233.34 60.02C157.34 60.02 115.12 60.02 106.68 60.02C105.98 59.99 105.29 59.99 104.59 60.02C94.37 61.1 86.62 69.74 86.68 80.02C86.68 88.02 86.68 152.02 86.68 160.02C86.68 171.07 95.63 180.02 106.68 180.02C107.56 180.02 112.01 180.02 120.01 180.02C120.01 444.01 120.01 590.67 120.01 620C120.01 631.05 128.96 640 140.01 640C176.01 640 463.99 640 499.99 640C511.04 640 519.99 631.05 519.99 620C519.99 590.67 519.99 444.01 519.99 180.02C527.99 180.02 532.44 180.02 533.32 180.02C544.37 180.02 553.32 171.07 553.32 160.02C553.32 152.02 553.32 88.02 553.32 80.02C553.32 68.98 544.37 60.03 533.32 60.02C524.88 60.02 482.66 60.02 406.66 60.02C406.66 36.03 406.66 22.69 406.66 20.03C406.66 8.98 397.71 0.03 386.66 0.03C373.33 0.03 266.67 0.03 253.34 0.03C252.64 -0.01 251.95 -0.01 251.25 0.03C241.03 1.1 233.28 9.75 233.34 20.03ZM366.66 40.03L366.66 60.02L273.34 60.02L273.34 40.03L366.66 40.03ZM513.33 100.02L513.33 140.02L126.68 140.02L126.68 100.02L513.33 100.02ZM479.99 180.02L479.99 600L160.01 600L160.01 180.02L479.99 180.02ZM213.33 226.47C213.34 226.54 213.34 226.61 213.34 226.68C213.34 260.02 213.34 526.67 213.34 560C213.18 571.05 222.01 580.13 233.05 580.29C244.1 580.44 253.18 571.61 253.34 560.57C253.34 560.38 253.34 560.19 253.34 560C253.34 526.67 253.34 260.02 253.34 226.68C253.57 215.64 244.8 206.5 233.76 206.27C233.55 206.27 233.34 206.27 233.13 206.27C222.08 206.38 213.22 215.43 213.33 226.47ZM300 226.47C300 226.54 300 226.61 300 226.68C300 260.02 300 526.67 300 560C299.84 571.05 308.67 580.13 319.72 580.29C330.76 580.44 339.84 571.61 340 560.57C340 560.38 340 560.19 340 560C340 526.67 340 260.02 340 226.68C340.23 215.64 331.46 206.5 320.42 206.27C320.21 206.27 320 206.27 319.79 206.27C308.75 206.38 299.88 215.43 300 226.47ZM386.66 226.47C386.66 226.54 386.66 226.61 386.66 226.68C386.66 260.02 386.66 526.67 386.66 560C386.51 571.05 395.34 580.13 406.38 580.29C417.43 580.44 426.51 571.61 426.66 560.57C426.66 560.38 426.66 560.19 426.66 560C426.66 526.67 426.66 260.02 426.66 226.68C426.89 215.64 418.13 206.5 407.08 206.27C406.87 206.27 406.66 206.27 406.45 206.27C395.41 206.38 386.55 215.43 386.66 226.47Z" id="anHuBRAj7"></path></defs><g><g><g><use xlink:href="#anHuBRAj7" opacity="1" fill="#FF101F" fill-opacity="1"></use><g><use xlink:href="#anHuBRAj7" opacity="1" fill-opacity="0" stroke="#000000" stroke-width="6" stroke-opacity="0"></use></g></g></g></g></svg>